HIERARCHY
ROOT Hips
{
	OFFSET 0.000000 0.000000 0.000000 
	CHANNELS 6 Xposition Yposition Zposition Yrotation Zrotation Xrotation 
	JOINT Lumbar
	{
		OFFSET 0.000000 0.000000 0.000000 
		CHANNELS 3 Zrotation Xrotation Yrotation
		JOINT Neck
		{
			OFFSET 0.000000 0.445665 0.000000 
			CHANNELS 3 Zrotation Xrotation Yrotation
			End Site
			{
				OFFSET 0.000000 0.227535 0.000000 
			}
		}
		JOINT RightShoulder
		{
			OFFSET 0.019635 0.377685 0.194865 
			CHANNELS 3 Zrotation Xrotation Yrotation
			JOINT RightElbow
			{
				OFFSET 0.000000 -0.243375 0.000000 
				CHANNELS 2 Zrotation Yrotation
				JOINT RightWrist
				{
					OFFSET 0.000000 -0.264825 0.000000 
					CHANNELS 2 Zrotation Xrotation
					End Site
					{
						OFFSET 0.006600 -0.176220 0.000990 
					}
				}
			}
		}
		JOINT LeftShoulder
		{
			OFFSET 0.019635 0.377685 -0.194865 
			CHANNELS 3 Zrotation Xrotation Yrotation
			JOINT LeftElbow
			{
				OFFSET 0.000000 -0.243375 0.000000 
				CHANNELS 2 Zrotation Yrotation
				JOINT LeftWrist
				{
					OFFSET 0.000000 -0.264825 0.000000 
					CHANNELS 2 Zrotation Xrotation
					End Site
					{
						OFFSET 0.006600 -0.176220 -0.000990 
					}
				}
			}
		}
	}
	JOINT RightHip
	{
		OFFSET 0.052140 -0.069960 0.075570 
		CHANNELS 3 Zrotation Xrotation Yrotation
		JOINT RightKnee
		{
			OFFSET 0.000000 -0.402270 0.000000 
			CHANNELS 1 Zrotation
			JOINT RightAnkle
			{
				OFFSET 0.000000 -0.404085 0.000000 
				CHANNELS 3 Zrotation Xrotation Yrotation
				End Site
				{
					OFFSET 0.204105 -0.089430 0.008415 
				}
			}
		}
	}
	JOINT LeftHip
	{
		OFFSET 0.052140 -0.069960 -0.075570 
		CHANNELS 3 Zrotation Xrotation Yrotation
		JOINT LeftKnee
		{
			OFFSET 0.000000 -0.402270 0.000000 
			CHANNELS 1 Zrotation
			JOINT LeftAnkle
			{
				OFFSET 0.000000 -0.404085 0.000000 
				CHANNELS 3 Zrotation Xrotation Yrotation
				End Site
				{
					OFFSET 0.204105 -0.089430 -0.008415 
				}
			}
		}
	}
}
MOTION
Frames: 22
Frame Time: 0.02
1.2981 0.00012 0.61696 787.82391 -30.0504 -7.90371 36.92988 6.54877 3.25501 -13.92958 3.01199 -2.11994 166.32905 -160.96723 -87.14651 5.78739 82.95758 -58.06464 -3.78674 -37.23534 46.42348 -25.83899 110.50478 -92.02125 16.01725 0.7553 46.79094 8.83062 -24.14152 -28.1142 -6.73566 -1.07587 -2.78749 42.39752 20.39621 -11.68888 -66.9909 -12.36199 -1.00573 1.98928
1.30553 0.00195 0.60443 788.07333 -29.95158 -7.73508 36.75062 6.51516 4.68294 -13.55739 3.48558 -2.11994 166.42719 -160.20896 -87.14667 5.7865 79.62724 -62.50563 -6.76225 -36.65205 46.74637 -26.33878 110.68754 -92.02459 15.91773 0.88883 45.15177 8.95419 -24.65694 -27.22615 -4.62463 -0.33198 -2.36921 44.51248 20.28042 -11.2436 -68.1003 -12.15987 -0.83023 2.06815
1.31208 0.00387 0.59215 788.24543 -29.96659 -7.48292 36.65881 6.39478 6.15832 -13.19049 3.92095 -2.11994 166.37258 -159.30068 -87.14661 5.78813 75.79994 -65.12799 -10.89806 -36.21889 47.01087 -26.68158 110.93245 -91.98583 15.91033 0.80112 43.61309 9.0062 -25.01835 -26.20821 -1.97201 0.59896 -1.84487 46.54831 20.09802 -10.31225 -68.28015 -11.77977 -0.61257 2.16111
1.31898 0.00569 0.57976 788.46105 -29.93376 -7.2683 36.52753 6.31606 7.59399 -12.82045 4.35627 -2.11994 166.38671 -158.46246 -87.14669 5.78665 72.31069 -68.54566 -14.37903 -35.71597 47.29389 -27.09564 111.13734 -91.96126 15.86298 0.8246 42.03805 9.0916 -25.43169 -25.25432 0.36229 1.41159 -1.38618 48.60121 19.95516 -9.57335 -68.80208 -11.48827 -0.42137 2.24434
1.32605 0.00776 0.56739 788.638 -29.88313 -7.054 36.39113 6.22751 9.11263 -12.4517 4.86411 -2.11994 166.39104 -157.61571 -87.14699 5.78447 68.33802 -72.18709 -18.39886 -35.21459 47.61631 -27.51632 111.39127 -91.95003 15.80013 0.82077 40.41488 9.17525 -25.92076 -24.26319 3.01115 2.36693 -0.85236 50.75039 19.77513 -8.93565 -69.67724 -11.16353 -0.19951 2.34152
1.33258 0.00933 0.55502 788.87953 -29.89693 -6.82034 36.28758 6.13892 10.46473 -12.08294 5.21199 -2.11994 166.38389 -156.751 -87.14627 5.79562 65.25947 -74.89576 -21.57103 -34.74824 47.8406 -27.88318 111.55823 -91.90926 15.79542 0.81368 38.91915 9.24503 -26.21818 -23.32573 5.12255 3.06778 -0.45117 52.67069 19.6519 -7.98671 -69.58488 -10.86575 -0.03025 2.4136
1.33795 0.00954 0.54267 789.30377 -30.06382 -6.54656 36.2555 6.07201 11.37659 -11.70409 5.13089 -2.11994 166.38814 -155.86918 -87.14747 5.77276 64.75087 -75.46421 -22.12988 -34.33352 47.80935 -28.14383 111.46823 -91.72676 15.91351 0.86252 37.7524 9.29114 -25.99321 -22.5595 5.70882 3.03118 -0.43241 54.01854 19.75319 -6.20019 -67.12119 -10.68902 -0.0314 2.40588
1.3428 0.00924 0.5303 789.79833 -30.29158 -6.25778 36.25408 6.00793 12.11297 -11.32691 4.89018 -2.11994 166.38693 -154.9697 -87.14701 5.79439 65.16217 -75.14501 -21.79585 -33.95102 47.6807 -28.35405 111.28915 -91.5262 16.08976 0.91177 36.71192 9.32594 -25.58585 -21.85619 5.72085 2.73038 -0.5523 55.13007 19.90574 -4.13569 -63.70428 -10.54514 -0.08444 2.37361
1.34786 0.00913 0.5179 790.27091 -30.48933 -5.98046 36.23731 5.94236 12.90858 -10.95478 4.71994 -2.11994 166.38634 -154.08841 -87.14398 5.81883 65.16965 -75.22551 -21.8604 -33.55984 47.59466 -28.58403 111.15174 -91.38437 16.25134 0.95078 35.61316 9.3676 -25.28225 -21.13121 5.93219 2.54235 -0.61571 56.3208 20.00027 -2.26489 -60.671 -10.38426 -0.10405 2.35718
1.35303 0.0092 0.50567 790.69999 -30.69971 -5.67999 36.22781 5.87497 13.79217 -10.55798 4.55511 -2.11994 166.38797 -153.18227 -87.15405 5.67213 65.10813 -75.26093 -21.98648 -33.14868 47.51228 -28.82238 111.01063 -91.04074 16.36998 1.02294 34.51939 9.39981 -24.88634 -20.36965 6.41187 2.38915 -0.64948 57.62551 20.23492 -0.09692 -57.80202 -10.22571 -0.16338 2.32162
1.35784 0.00877 0.49307 791.23569 -30.89829 -5.42602 36.21145 5.81271 14.45069 -10.21327 4.34405 -2.11994 166.38582 -152.2964 -87.13761 5.98522 65.40452 -75.20148 -21.76895 -32.78482 47.40164 -29.03281 110.85631 -91.09741 16.58615 1.03135 33.44659 9.44959 -24.63994 -19.70416 6.20285 2.10137 -0.77725 58.64087 20.19588 1.51722 -54.39244 -10.07265 -0.15333 2.31969
1.36184 0.0071 0.47958 792.06348 -31.03567 -5.29833 36.15001 5.76816 14.52593 -10.00902 4.02369 -2.11994 166.37482 -151.7368 -87.03809 6.72345 66.56165 -75.11241 -20.71229 -32.54374 47.22135 -29.18331 110.67827 -92.40735 17.09711 0.84283 32.37838 9.55331 -24.86303 -19.26424 4.11123 1.47828 -1.14889 58.88652 19.34492 1.4843 -49.59479 -9.92609 0.06447 2.41822
1.36547 0.00493 0.46571 792.99357 -31.16083 -5.21951 36.08359 5.72829 14.38139 -9.85773 3.66637 -2.11994 166.36097 -151.15965 -86.91374 8.05052 68.03293 -74.96435 -19.35338 -32.34873 47.019 -29.30713 110.49154 -94.09667 17.69691 0.59466 31.33074 9.67467 -25.24074 -18.92511 1.36559 0.73304 -1.60757 58.85433 18.22519 0.89144 -44.31761 -9.78506 0.35272 2.55093
1.36921 0.00297 0.45195 793.86774 -31.30034 -5.12247 36.0313 5.68393 14.34028 -9.68401 3.33981 -2.11994 166.34911 -150.4037 -86.80771 9.69025 69.2972 -74.84249 -18.20049 -32.13139 46.83731 -29.44101 110.31416 -95.51528 18.22883 0.38899 30.28779 9.78693 -25.54138 -18.55516 -1.00294 0.06154 -2.01486 58.96905 17.25751 0.58483 -39.3451 -9.64271 0.60662 2.66707
1.37318 0.00109 0.43845 794.78499 -31.40592 -5.00778 35.93026 5.64964 14.27798 -9.50312 2.94882 -2.11994 166.33406 -150.39303 -86.67251 8.99675 70.85876 -74.69186 -16.73438 -31.91973 46.60782 -29.58254 110.11023 -97.33807 18.87665 0.11992 29.18958 9.9045 -25.86697 -18.11978 -3.72569 -0.69531 -2.47649 58.99034 16.16547 0.15324 -33.96025 -9.4959 0.86984 2.7873
1.37659 -0.00108 0.42431 795.6348 -31.57721 -4.94196 35.9289 5.59542 14.21005 -9.35013 2.6852 -2.11994 166.32501 -148.87949 -86.59143 13.15806 71.87093 -74.59796 -15.85151 -31.70852 46.47327 -29.70146 109.96155 -98.42209 19.30632 -0.03336 28.21028 10.01384 -26.17631 -17.84917 -5.86197 -1.30084 -2.84433 59.14084 15.26778 -0.15369 -29.34828 -9.35984 1.12947 2.90671
1.37862 -0.00392 0.40862 796.2836 -31.94256 -4.99623 36.20558 5.48534 14.17892 -9.25802 2.78386 -2.11994 166.33405 -142.76671 -86.67251 31.80944 71.22401 -74.69055 -16.73262 -31.472 46.61167 -29.77373 109.96031 -97.26581 19.0864 0.1657 27.55046 10.10847 -26.43205 -17.96698 -6.18741 -1.4503 -2.92678 59.73711 14.97266 0.00755 -26.86271 -9.24731 1.3759 3.02211
1.38008 -0.00704 0.39227 796.8595 -32.37186 -5.09829 36.58187 5.35494 14.15019 -9.19302 3.01213 -2.11994 166.34912 -135.22976 -86.8077 55.08912 70.02086 -74.84413 -18.20101 -31.23719 46.84533 -29.82273 110.0165 -95.37444 18.6485 0.47978 27.01094 10.19142 -26.66091 -18.25723 -5.9032 -1.4435 -2.91213 60.46924 14.88121 0.31285 -25.19951 -9.14599 1.61413 3.13447
1.38174 -0.01003 0.37614 797.46074 -32.76588 -5.18082 36.91192 5.23367 14.12307 -9.11732 3.18131 -2.11994 166.36093 -128.63872 -86.91373 75.45376 69.11059 -74.9643 -19.35231 -31.01128 47.03302 -29.87658 110.05195 -93.88855 18.32657 0.7297 26.41658 10.27238 -26.88482 -18.4924 -5.91572 -1.51237 -2.94458 61.12792 14.69729 0.56145 -23.24712 -9.04277 1.84696 3.24388
1.38363 -0.01306 0.36035 798.09536 -33.18777 -5.25708 37.24765 5.11315 14.07957 -9.03547 3.35136 -2.11994 166.37479 -120.77418 -87.03807 99.29696 68.04287 -75.1056 -20.70295 -30.74554 47.2334 -29.95359 110.06554 -92.10903 17.93566 1.02862 25.8185 10.387 -27.18932 -18.62219 -5.86797 -1.56597 -2.96756 61.83043 14.50736 0.76064 -20.92154 -8.927 2.11996 3.3724
1.38491 -0.01605 0.34369 798.64575 -33.56441 -5.35551 37.59309 4.986 14.07015 -8.97366 3.54907 -2.11994 166.38588 -115.23907 -87.13759 116.94715 67.16645 -75.21855 -21.78376 -30.5633 47.4275 -29.97725 110.137 -90.76832 17.6364 1.25243 25.26303 10.42569 -27.31402 -19.02442 -5.79289 -1.6127 -2.98612 62.47223 14.37716 1.09548 -19.57356 -8.83902 2.30743 3.46039
1.3848 -0.01897 0.32484 798.94667 -33.8222 -5.51709 37.95942 4.84702 14.18528 -8.94785 3.80749 -2.11994 166.38771 -116.34868 -87.15404 116.7155 66.95438 -75.23724 -21.96233 -30.60471 47.60579 -29.85885 110.36684 -90.75372 17.63392 1.25178 24.74092 10.28152 -26.97906 -20.02278 -5.78387 -1.67682 -3.0148 62.95944 14.40458 1.85046 -20.7393 -8.83301 2.2514 3.43302
